<?xml version="1.0" encoding="UTF-8" standalone="no"?>
<!DOCTYPE svg PUBLIC "-//W3C//DTD SVG 1.1//EN" "http://www.w3.org/Graphics/SVG/1.1/DTD/svg11.dtd">
<svg width="100%" height="100%" viewBox="0 0 866 887" version="1.1" xmlns="http://www.w3.org/2000/svg" xmlns:xlink="http://www.w3.org/1999/xlink" xml:space="preserve" xmlns:serif="http://www.serif.com/" style="fill-rule:evenodd;clip-rule:evenodd;stroke-linejoin:round;stroke-miterlimit:2;">
    <g>
        <g transform="matrix(1,0,0,1,10.1823,129.859)">
            <path d="M246.691,614.414C246.691,614.414 418.223,427.631 755.994,424.309C755.994,424.309 365.336,326.158 110.006,614.414L246.691,614.414Z" style="fill:url(#_Linear1);"/>
        </g>
        <g transform="matrix(1,0,0,1,10.1823,129.859)">
            <path d="M110.006,614.414L246.691,614.414L302.409,477.729L350.293,359.329L431.259,161.7L494.814,0.639L371.187,0.639L110.006,614.414Z" style="fill:url(#_Linear2);"/>
        </g>
        <g transform="matrix(1,0,0,1,10.1823,129.859)">
            <path d="M615.827,614.414L755.994,614.414L494.814,0.639L431.259,161.7L512.226,359.329L560.109,477.729L615.827,614.414Z" style="fill:url(#_Linear3);"/>
        </g>
    </g>
    <defs>
        <linearGradient id="_Linear1" x1="0" y1="0" x2="1" y2="0" gradientUnits="userSpaceOnUse" gradientTransform="matrix(645.989,0,0,645.989,110.006,511.308)"><stop offset="0" style="stop-color:black;stop-opacity:1"/><stop offset="1" style="stop-color:rgb(86,86,86);stop-opacity:1"/></linearGradient>
        <linearGradient id="_Linear2" x1="0" y1="0" x2="1" y2="0" gradientUnits="userSpaceOnUse" gradientTransform="matrix(2.75564e-08,-613.775,613.775,2.75564e-08,302.41,614.414)"><stop offset="0" style="stop-color:rgb(81,81,81);stop-opacity:1"/><stop offset="0.6" style="stop-color:rgb(140,142,143);stop-opacity:1"/><stop offset="1" style="stop-color:rgb(243,245,245);stop-opacity:1"/></linearGradient>
        <linearGradient id="_Linear3" x1="0" y1="0" x2="1" y2="0" gradientUnits="userSpaceOnUse" gradientTransform="matrix(2.75564e-08,-613.775,613.775,2.75564e-08,593.627,614.414)"><stop offset="0" style="stop-color:white;stop-opacity:1"/><stop offset="1" style="stop-color:rgb(147,147,147);stop-opacity:1"/></linearGradient>
    </defs>
</svg>
